<svg width="160px" height="160px" viewBox="0 0 200 200" xmlns="http://www.w3.org/2000/svg" xmlns:xlink="http://www.w3.org/1999/xlink">
  <defs/>
  <g>
    <path stroke="none" fill="#ff9900" d="M136.75 68.75 Q137.45 69.15 134.95 61 156.8 69.5 189.3 86.9 L135.95 94.35 134.95 94.7 136.75 68.75 M136.75 100.9 L192.45 119.65 142.6 138 136.75 100.9"/>
    <path stroke="none" fill="#ffcc00" d="M106.2 66.85 Q105.65 62.55 101.85 59.95 97.9 57.7 92.75 58.25 88 59.35 84.85 62.3 81.65 66.3 82.65 70.6 83.2 74.9 86.95 77 90.95 79.55 95.8 78.85 100.75 78.1 103.95 74.6 107 71.15 106.2 66.85 M142 67.1 L140.6 87.35 141.4 87.05 146.5 121.2 Q147.5 144.25 144.05 166.65 L6.45 166.65 6.45 103.9 18.8 85.25 Q73.65 -4.55 140.6 61.05 142.55 67.4 142 67.1"/>
    <path stroke="none" fill="#000000" d="M106.2 66.85 Q107 71.15 103.95 74.6 100.75 78.1 95.8 78.85 90.95 79.55 86.95 77 83.2 74.9 82.65 70.6 81.65 66.3 84.85 62.3 88 59.35 92.75 58.25 97.9 57.7 101.85 59.95 105.65 62.55 106.2 66.85"/>
  </g>
</svg>