<svg width="330px" height="125px" viewBox="0 0 340 120" xmlns="http://www.w3.org/2000/svg" xmlns:xlink="http://www.w3.org/1999/xlink">
  <defs/>
  <g>
    <path stroke="none" fill="#000000" d="M135.55 73.05 L130.45 73.05 129.65 78.05 125.85 77.7 126.65 69.25 148.85 69.25 149.65 77.7 145.85 78.05 145.05 73.05 139.95 73.05 139.95 91.4 144.3 91.4 144.3 95.2 131.35 95.2 131.35 91.4 135.55 91.4 135.55 73.05 M267.9 116.55 L267.2 116.45 266.4 116.6 265.8 117.05 265.45 117.7 265.3 118.4 265.3 119.1 265.45 119.85 265.8 120.45 266.4 120.85 267.1 121 267.9 120.85 268.5 120.35 268.85 119.6 268.95 118.65 268.8 117.7 268.45 117 267.9 116.55 M269.5 116.25 L270.05 117.2 270.25 118.55 270.1 119.85 269.6 120.95 268.7 121.75 267.4 122.05 266.1 121.75 265.2 120.9 265.1 121.9 263.85 121.9 264.05 120 264.05 113.1 263 113.1 263 112.1 265.3 112.1 265.3 116.8 Q265.6 116.15 266.1 115.85 266.4 115.6 266.75 115.5 L267.55 115.4 268.65 115.6 269.5 116.25 M271.55 116.5 L270.8 116.5 270.8 115.55 273.85 115.55 273.85 116.5 272.85 116.5 274.5 120.4 274.6 120.4 276 116.5 275.1 116.5 275.1 115.55 277.95 115.55 277.95 116.5 277.25 116.5 274.25 123.95 275.25 123.95 275.25 124.95 271.95 124.95 271.95 123.95 273.1 123.95 273.8 121.9 271.55 116.5 M298.55 117 L297.95 116.55 297.15 116.4 296.35 116.55 295.75 117.05 Q295.5 117.35 295.4 117.75 L295.25 118.7 295.35 119.6 295.75 120.35 296.3 120.85 297.15 121.05 297.95 120.85 298.6 120.35 298.95 119.6 299.1 118.7 298.95 117.75 298.55 117 M299.6 116.4 L300.2 117.45 300.4 118.7 300.15 120.05 299.5 121.1 298.45 121.8 297.1 122.05 295.8 121.8 294.8 121.15 294.15 120.1 293.95 118.8 294.15 117.45 294.75 116.4 Q295.2 115.9 295.8 115.65 L297.2 115.4 298.6 115.65 299.6 116.4 M289.75 116.4 L289.05 116.55 Q288.75 116.7 288.5 117 L288.2 117.6 288.1 118.2 288.1 120.95 289.1 120.95 289.1 121.9 286.2 121.9 286.2 120.95 286.85 120.95 286.85 118.2 286.75 117.35 286.45 116.8 286.05 116.5 285.5 116.4 284.8 116.55 284.3 117 283.95 117.55 283.85 118.2 283.85 120.95 285.05 120.95 285.05 121.9 281.55 121.9 281.55 120.95 282.6 120.95 282.6 116.5 281.55 116.5 281.55 115.55 283.85 115.55 283.85 116.65 Q284.15 116.05 284.65 115.75 L285.25 115.5 285.9 115.4 286.6 115.5 287.2 115.75 287.65 116.2 288 116.9 288.35 116.3 288.8 115.8 Q289.1 115.6 289.45 115.5 L290.15 115.4 291 115.55 291.7 115.95 292.15 116.7 292.3 117.75 292.3 120.95 293.35 120.95 293.35 121.9 290.45 121.9 290.45 120.95 291.1 120.95 291.1 118.2 291 117.35 290.7 116.8 290.3 116.5 289.75 116.4 M319.3 112.1 L320.55 112.1 317.55 121.9 316.35 121.9 319.3 112.1 M312.55 121.9 L311.35 121.9 314.3 112.1 315.55 112.1 312.55 121.9 M308.4 121.9 L308.4 120.15 309.9 120.15 309.9 121.9 308.4 121.9 M306.75 115.55 L306.8 116.25 302.95 120.95 305.85 120.95 306.15 119.7 307.15 119.85 306.8 121.9 301.4 121.9 301.3 121.2 305.15 116.5 302.45 116.5 302.25 117.7 301.3 117.6 301.5 115.55 306.75 115.55 M309.9 115.55 L309.9 117.3 308.4 117.3 308.4 115.55 309.9 115.55 M240.75 88.1 L240.75 87.45 237.9 87.2 Q236.05 87.2 235.05 87.8 L234.1 88.65 Q233.75 89.2 233.75 90 233.75 91.2 234.45 91.85 235.15 92.45 236.35 92.45 238 92.45 239.25 91.35 L240.25 90 Q240.7 89.15 240.75 88.1 M206.7 73.3 L208.5 71.5 210.7 70.1 Q211.95 69.5 213.4 69.2 L216.5 68.85 Q218.75 68.85 222.1 69.8 224.25 70.55 225.8 71.95 L226.45 77.55 222.85 77.9 222.2 74.35 Q221.05 73.6 219.6 73.2 L216.45 72.8 Q214.6 72.8 213.1 73.45 211.6 74.1 210.55 75.35 209.5 76.55 208.95 78.35 208.35 80.1 208.35 82.3 208.35 84.6 208.95 86.4 209.55 88.15 210.7 89.3 211.8 90.5 213.4 91.1 214.95 91.7 216.9 91.7 L219.8 91.4 222.1 90.55 222.75 86.7 226.4 87.05 225.8 92.75 224.1 93.9 221.85 94.85 216.5 95.6 213.8 95.35 Q212.55 95.1 211.35 94.65 L209.15 93.5 207.25 91.95 Q206.35 91.1 205.7 90.05 L204.55 87.8 203.85 85.3 Q203.6 84 203.6 82.55 203.6 80.95 204.35 77.7 L205.3 75.4 206.7 73.3 M163.35 69.25 L163.35 73.05 159.45 73.05 159.45 91.4 167.45 91.4 168.25 86 172.05 86.35 171.25 95.2 152.05 95.2 152.05 91.4 155.05 91.4 155.05 73.05 152.05 73.05 152.05 69.25 163.35 69.25 M183.3 68.85 Q185.7 68.85 187.95 69.6 190.25 70.3 191.5 71.45 L191.75 76.95 188.2 77.25 187.8 73.9 Q186.8 73.3 185.6 73 L183.45 72.8 Q181.45 72.8 180.3 73.55 L179.4 74.55 Q179.1 75.15 179.1 75.95 179.1 76.9 179.5 77.55 L180.6 78.6 Q181.55 79.15 184.05 79.75 L186.85 80.4 Q188.55 80.85 189.7 81.55 191.2 82.4 192 83.75 L192.7 85.45 192.95 87.6 Q192.95 89.5 192.2 91 191.55 92.5 190.25 93.5 188.95 94.55 187.15 95.1 L183.1 95.6 178.05 94.95 Q175.1 93.9 174.15 93.15 L174.85 87.15 178.4 87.55 178.35 90.75 Q180.1 91.65 182.8 91.75 L184.95 91.6 186.65 91.05 187.75 89.9 Q188.2 89.15 188.2 88.05 188.2 86.9 187.7 86.05 L186.45 84.8 Q185.7 84.35 184.6 84.05 L182.4 83.55 Q178.5 82.8 177 81.8 175.7 81 175.05 79.75 174.35 78.45 174.35 76.5 174.35 74.55 175.1 73 175.8 71.6 177.1 70.65 178.35 69.75 180 69.3 L183.3 68.85 M303.4 80.9 L302.05 80.5 Q300.9 80.5 300.1 81.45 299.3 82.4 299.3 84 L299.3 91.95 302.85 91.95 302.85 95.2 292.35 95.2 292.35 91.95 295.05 91.95 295.05 80.6 292.25 80.6 292.25 77.3 298.95 77.3 298.95 80.65 Q299.5 79 300.5 78.05 301.65 77 303.3 77 L304.95 77.25 306.65 78 307.4 83.6 304.1 84 303.4 80.9 M279.6 92.45 Q281.25 92.45 282.5 91.35 L283.5 90 Q283.95 89.15 284 88.1 L284 87.45 281.15 87.2 Q279.3 87.2 278.3 87.8 277.7 88.1 277.35 88.65 277 89.2 277 90 277 91.2 277.7 91.85 278.4 92.45 279.6 92.45 M274.25 78.6 Q276.25 77.65 277.8 77.3 L281.4 76.95 284.15 77.3 Q285.45 77.7 286.35 78.45 287.25 79.2 287.75 80.35 288.25 81.5 288.25 83 L288.25 91.05 Q288.25 91.9 288.55 92.3 288.9 92.65 289.6 92.65 L290.5 92.5 290.55 94.85 Q289.2 95.6 287.7 95.6 286 95.6 285.05 94.65 284.15 93.7 284 92.05 L284 91.95 Q283.1 93.55 281.75 94.5 L280.1 95.3 278.15 95.6 276.2 95.35 Q275.2 95.05 274.45 94.45 273.6 93.85 273.15 92.9 272.65 91.85 272.65 90.5 272.65 88.9 273.35 87.8 274 86.75 275.25 86.1 276.4 85.55 277.95 85.3 L280.95 85.05 284 85.25 284 84.25 Q284 82.3 283.45 81.35 L282.45 80.45 280.65 80.1 Q278.8 80.1 277.65 80.7 L276.95 83.45 273.5 83.05 274.25 78.6 M243.1 78.45 Q244 79.2 244.5 80.35 245 81.5 245 83 L245 91.05 Q245 91.9 245.3 92.3 245.65 92.65 246.35 92.65 L247.25 92.5 247.3 94.85 Q245.95 95.6 244.45 95.6 242.75 95.6 241.8 94.65 240.9 93.7 240.75 92.05 L240.75 91.95 Q239.85 93.55 238.5 94.5 L236.85 95.3 234.9 95.6 232.95 95.35 Q231.95 95.05 231.2 94.45 230.35 93.85 229.9 92.9 229.4 91.85 229.4 90.5 229.4 88.9 230.1 87.8 230.75 86.75 232 86.1 233.15 85.55 234.7 85.3 L237.7 85.05 240.75 85.25 240.75 84.25 Q240.75 82.3 240.2 81.35 L239.2 80.45 Q238.45 80.1 237.4 80.1 235.55 80.1 234.4 80.7 L233.7 83.45 230.25 83.05 231 78.6 Q233 77.65 234.55 77.3 L238.15 76.95 240.9 77.3 Q242.2 77.7 243.1 78.45 M258.45 77.8 Q260 76.95 262 76.95 L264.4 77.3 266.4 78.5 Q267.3 79.3 267.7 80.45 268.2 81.75 268.2 83.35 L268.2 91.95 270.9 91.95 270.9 95.2 261.3 95.2 261.3 91.95 263.95 91.95 263.95 84.9 263.7 82.75 263.05 81.3 261.95 80.5 260.5 80.25 Q259.5 80.25 258.65 80.6 257.85 80.9 257.3 81.55 256.7 82.15 256.4 83 256.05 83.8 256.05 84.8 L256.05 91.95 258.7 91.95 258.7 95.2 249.1 95.2 249.1 91.95 251.8 91.95 251.8 80.6 249 80.6 249 77.3 256.05 77.3 256.05 80.2 Q256.95 78.65 258.45 77.8 M325.4 119.45 L325.4 119.1 324.3 119 323.1 119.2 322.75 119.55 Q322.6 119.8 322.6 120.1 322.6 120.6 322.95 120.85 L323.65 121.05 324.25 120.95 324.8 120.65 325.2 120.15 325.4 119.45 M324.3 115.4 L325.25 115.55 Q325.7 115.65 326 115.95 L326.5 116.6 326.65 117.55 326.65 120.5 326.75 121 Q326.9 121.15 327.15 121.15 L327.55 121.05 327.55 121.8 326.6 122.05 Q326.05 122.05 325.75 121.7 325.4 121.35 325.4 120.75 L324.55 121.65 323.95 121.95 323.25 122.05 322.6 121.95 321.95 121.65 321.5 121.1 321.3 120.25 Q321.3 119.65 321.6 119.25 L322.25 118.65 323.2 118.35 324.3 118.3 325.4 118.35 325.4 117.9 325.15 116.8 324.75 116.5 324.05 116.35 322.9 116.6 322.65 117.65 321.65 117.55 321.9 116 Q322.5 115.7 323.05 115.55 L324.3 115.4 M329.05 80.55 L327.15 80.55 319.2 100.35 321.85 100.35 321.85 103.7 312.25 103.7 312.25 100.35 315.3 100.35 317.05 95.35 310.7 80.55 308.75 80.55 308.75 77.3 317.55 77.3 317.55 80.55 315.3 80.55 319.45 90.25 319.65 90.25 323 80.55 321 80.55 321 77.3 329.05 77.3 329.05 80.55"/>
    <path fill="none" stroke="#cc9900" stroke-width="3" stroke-linecap="round" stroke-linejoin="round" d="M12.9 121.2 L90.8 104.75"/>
    <path stroke="none" fill="#ffcc00" d="M72.4 49.4 L72.65 50.55 72.4 54.35 72.55 54.3 72.65 55.25 73.5 60.7 Q74.1 74.25 66.3 86.8 63.25 91.55 59.45 94.25 58.9 95.05 59.15 96.1 59.55 97.45 59.1 98.9 L58.95 99.5 57.95 100.45 Q55.2 100.5 54.5 97.8 L54.35 97.25 40.55 97.55 Q41 99.75 39.45 101.35 L39.15 101.7 38.2 101.6 37.8 101.25 Q35.5 100.4 35.5 97.05 23.05 97.45 9.9 100.75 L6.5 101.3 6.15 100.85 25.4 87.75 20.05 84.35 29.1 81.15 Q34.7 73.05 41.05 65.55 45.8 60 49.6 53.95 59.85 37.1 72.4 49.4 M61.95 49.65 Q61.35 50.4 61.55 51.2 61.65 52 62.35 52.4 63.1 52.9 64 52.75 64.95 52.6 65.55 51.95 66.1 51.3 65.95 50.5 65.85 49.7 65.15 49.2 64.4 48.8 63.45 48.9 62.55 49.1 61.95 49.65 M39.55 97.55 L39.55 97.45 39.5 97.45 39.55 97.55"/>
    <path stroke="none" fill="#000000" d="M37.8 101.25 L38.2 101.6 39.15 101.7 37.05 113.45 41.15 120.95 41.15 121.6 40.8 121.95 40 121.65 37.4 117.05 38.65 122.6 37.75 123.4 37.25 122.85 35.65 115.4 33.25 118.7 32.3 118.65 32.3 117.8 35.65 113.05 37.8 101.25 M57.95 100.45 L58.95 99.5 65.75 104.45 66.3 104.4 72.2 106.65 72.55 107.1 72 107.95 71.65 107.9 67.65 106.4 72 115.3 72 115.85 71.5 116.25 70.95 116.15 70.75 115.9 66.1 106.4 65.75 106.15 66.35 113.4 65.9 114.05 64.95 113.5 64.3 105.15 57.95 100.45 M61.95 49.65 Q62.55 49.1 63.45 48.9 64.4 48.8 65.15 49.2 65.85 49.7 65.95 50.5 66.1 51.3 65.55 51.95 64.95 52.6 64 52.75 63.1 52.9 62.35 52.4 61.65 52 61.55 51.2 61.35 50.4 61.95 49.65"/>
    <path stroke="none" fill="#ff9900" d="M72.55 54.3 L72.4 54.35 72.65 50.55 72.4 49.4 Q75.6 50.65 80.35 53.2 L72.55 54.3 M73.5 60.7 L72.65 55.25 80.8 58 73.5 60.7"/>
    <path stroke="none" fill="#ffffff" d="M169.45 31.05 Q169.45 40.15 159.85 46.55 150.3 53 136.7 53 126.8 53 119 49.55 L95.35 55 109.7 43.6 Q103.9 38.05 103.9 31.05 103.9 21.9 113.5 15.55 123.2 9.1 136.7 9.1 150.3 9.1 159.85 15.55 169.45 21.9 169.45 31.05"/>
    <path fill="none" stroke="#999999" stroke-width="3" stroke-linecap="round" stroke-linejoin="round" d="M169.45 31.05 Q169.45 40.15 159.85 46.55 150.3 53 136.7 53 126.8 53 119 49.55 L95.35 55 109.7 43.6 Q103.9 38.05 103.9 31.05 103.9 21.9 113.5 15.55 123.2 9.1 136.7 9.1 150.3 9.1 159.85 15.55 169.45 21.9 169.45 31.05"/>
    <path stroke="none" fill="#ff0000" d="M156 40.8 L151.2 40.8 151.2 36.6 156 36.6 156 40.8 M151.55 34.2 L150.75 20.05 156.45 20.05 155.7 34.2 151.55 34.2"/>
    <path stroke="none" fill="#ff0000" d="M142.7 18.7 L114.55 43.4 112.45 41.1 140.8 16.3 142.7 18.7"/>
    <path stroke="none" fill="#ffab1f" d="M137.05 25.1 Q138.85 25.45 138.85 27.5 L138.85 38.35 Q138.85 40.85 136.35 40.85 L119.45 40.85 119.1 40.85 137.05 25.1 M127.45 15.45 L128.25 15.45 Q131.75 15.4 134.2 18.4 L135.15 19.75 132.1 22.5 131.8 21.85 131.8 21.9 131.15 20.95 Q129.95 19.5 128.25 19.45 L127.45 19.45 Q125.75 19.5 124.55 20.95 123.15 22.65 123.15 25 L129.15 25 117.05 35.65 117.05 27.5 Q117.05 25.2 119.1 25.05 119.1 21.15 121.45 18.4 123.9 15.4 127.45 15.45"/>
  </g>
</svg>